<svg xmlns="http://www.w3.org/2000/svg" xmlns:xlink="http://www.w3.org/1999/xlink" viewBox="0 0 229.92 229.92"><defs><style>.cls-1{isolation:isolate;}.cls-2{fill:#28b4d2;}.cls-3{fill:#e1ba23;}.cls-4,.cls-6,.cls-7,.cls-8{opacity:0.57;mix-blend-mode:multiply;}.cls-4{fill:url(#linear-gradient);}.cls-5{fill:#469142;}.cls-6{fill:url(#linear-gradient-3);}.cls-7{fill:url(#linear-gradient-4);}.cls-8{fill:url(#linear-gradient-6);}.cls-9{opacity:0.48;mix-blend-mode:overlay;fill:url(#linear-gradient-7);}</style><linearGradient id="linear-gradient" x1="72.82" y1="38.59" x2="87.24" y2="76.16" gradientUnits="userSpaceOnUse"><stop offset="0" stop-color="#fff" stop-opacity="0"/><stop offset="0.34" stop-color="#d3d3d3" stop-opacity="0.2"/><stop offset="0.82" stop-color="#5b5858" stop-opacity="0.75"/><stop offset="1" stop-color="#231f20"/></linearGradient><linearGradient id="linear-gradient-3" x1="5218.17" y1="-370.06" x2="5232.6" y2="-332.48" gradientTransform="translate(5375.28 -178.72) rotate(180)" xlink:href="#linear-gradient"/><linearGradient id="linear-gradient-4" x1="2475.45" y1="-2704.13" x2="2489.87" y2="-2666.56" gradientTransform="translate(2742.72 2632.56) rotate(-90)" xlink:href="#linear-gradient"/><linearGradient id="linear-gradient-6" x1="2815.54" y1="2372.67" x2="2829.96" y2="2410.24" gradientTransform="translate(2564 -2742.72) rotate(90)" xlink:href="#linear-gradient"/><linearGradient id="linear-gradient-7" x1="75.36" y1="11.79" x2="154.57" y2="218.14" xlink:href="#linear-gradient"/></defs><title>logo</title><g class="cls-1"><g id="Layer_2" data-name="Layer 2"><g id="Layer_1-2" data-name="Layer 1"><g id="_Group_" data-name="&lt;Group&gt;"><g id="_Group_2" data-name="&lt;Group&gt;"><g id="_Group_3" data-name="&lt;Group&gt;"><path id="_Path_" data-name="&lt;Path&gt;" class="cls-2" d="M127.73,18.27a17.88,17.88,0,0,1-.38,3.73,18.27,18.27,0,0,1-33.11,6.37,18.05,18.05,0,0,1-3.05-10.1,18.27,18.27,0,0,1,36.54,0Z"/><g id="_Group_4" data-name="&lt;Group&gt;"><path id="_Path_2" data-name="&lt;Path&gt;" class="cls-2" d="M167.6,51.18l-51,39a22.65,22.65,0,0,1-29.72-2l-13-13a36.21,36.21,0,0,0,31.72-8.87L152,30.82A12.82,12.82,0,0,1,167.6,51.18Z"/></g><path id="_Path_3" data-name="&lt;Path&gt;" class="cls-3" d="M105.58,66.36a36.21,36.21,0,0,1-31.72,8.87L61.05,62.42A12.82,12.82,0,1,1,79.18,44.29l24,24Z"/><path id="_Path_4" data-name="&lt;Path&gt;" class="cls-4" d="M105.58,66.36a36.21,36.21,0,0,1-31.72,8.87L61.05,62.42A12.82,12.82,0,1,1,79.18,44.29l24,24Z"/></g><path id="_Path_5" data-name="&lt;Path&gt;" class="cls-5" d="M127.73,18.27a17.88,17.88,0,0,1-.38,3.73,18.27,18.27,0,0,1-33.11,6.37,18.05,18.05,0,0,1-3.05-10.1,18.27,18.27,0,0,1,36.54,0Z"/><g id="_Group_5" data-name="&lt;Group&gt;"><path id="_Path_6" data-name="&lt;Path&gt;" class="cls-2" d="M167.6,51.18l-51,39a22.65,22.65,0,0,1-29.72-2l-13-13a36.21,36.21,0,0,0,31.72-8.87L152,30.82A12.82,12.82,0,0,1,167.6,51.18Z"/></g><path id="_Path_7" data-name="&lt;Path&gt;" class="cls-3" d="M105.58,66.36a36.21,36.21,0,0,1-31.72,8.87L61.05,62.42A12.82,12.82,0,1,1,79.18,44.29l24,24Z"/><path id="_Path_8" data-name="&lt;Path&gt;" class="cls-4" d="M105.58,66.36a36.21,36.21,0,0,1-31.72,8.87L61.05,62.42A12.82,12.82,0,1,1,79.18,44.29l24,24Z"/><path id="_Path_9" data-name="&lt;Path&gt;" class="cls-5" d="M102.19,211.65a17.88,17.88,0,0,1,.38-3.73,18.27,18.27,0,0,1,33.11-6.37,18.05,18.05,0,0,1,3.05,10.1,18.27,18.27,0,1,1-36.54,0Z"/><g id="_Group_6" data-name="&lt;Group&gt;"><path id="_Path_10" data-name="&lt;Path&gt;" class="cls-2" d="M62.32,178.75l51-39a22.65,22.65,0,0,1,29.72,2l13,13a36.21,36.21,0,0,0-31.72,8.87L77.91,199.11a12.82,12.82,0,0,1-15.59-20.36Z"/></g><path id="_Path_11" data-name="&lt;Path&gt;" class="cls-3" d="M124.34,163.57a36.21,36.21,0,0,1,31.72-8.87l12.81,12.81a12.82,12.82,0,1,1-18.13,18.13l-24-24Z"/><path id="_Path_12" data-name="&lt;Path&gt;" class="cls-6" d="M124.34,163.57a36.21,36.21,0,0,1,31.72-8.87l12.81,12.81a12.82,12.82,0,1,1-18.13,18.13l-24-24Z"/><path id="_Path_13" data-name="&lt;Path&gt;" class="cls-3" d="M18.27,102.19a17.89,17.89,0,0,1,3.73.38,18.27,18.27,0,0,1,6.37,33.11,18.05,18.05,0,0,1-10.1,3.05,18.27,18.27,0,1,1,0-36.54Z"/><g id="_Group_7" data-name="&lt;Group&gt;"><path id="_Path_14" data-name="&lt;Path&gt;" class="cls-2" d="M51.18,62.32l39,51a22.65,22.65,0,0,1-2,29.72l-13,13a36.21,36.21,0,0,0-8.87-31.72L30.82,77.91A12.82,12.82,0,0,1,51.18,62.32Z"/></g><path id="_Path_15" data-name="&lt;Path&gt;" class="cls-3" d="M66.36,124.34a36.21,36.21,0,0,1,8.87,31.72L62.42,168.87a12.82,12.82,0,1,1-18.13-18.13l24-24Z"/><path id="_Path_16" data-name="&lt;Path&gt;" class="cls-7" d="M66.36,124.34a36.21,36.21,0,0,1,8.87,31.72L62.42,168.87a12.82,12.82,0,1,1-18.13-18.13l24-24Z"/><g id="_Group_8" data-name="&lt;Group&gt;"><path id="_Path_17" data-name="&lt;Path&gt;" class="cls-2" d="M51.18,62.32l39,51a22.65,22.65,0,0,1-2,29.72l-13,13a36.21,36.21,0,0,0-8.87-31.72L30.82,77.91A12.82,12.82,0,0,1,51.18,62.32Z"/></g><path id="_Path_18" data-name="&lt;Path&gt;" class="cls-5" d="M66.36,124.34a36.21,36.21,0,0,1,8.87,31.72L62.42,168.87a12.82,12.82,0,1,1-18.13-18.13l24-24Z"/><path id="_Path_19" data-name="&lt;Path&gt;" class="cls-7" d="M66.36,124.34a36.21,36.21,0,0,1,8.87,31.72L62.42,168.87a12.82,12.82,0,1,1-18.13-18.13l24-24Z"/><path id="_Path_20" data-name="&lt;Path&gt;" class="cls-3" d="M211.65,127.73a17.89,17.89,0,0,1-3.73-.38,18.27,18.27,0,0,1-6.37-33.11,18.05,18.05,0,0,1,10.1-3.05,18.27,18.27,0,0,1,0,36.54Z"/><g id="_Group_9" data-name="&lt;Group&gt;"><path id="_Path_21" data-name="&lt;Path&gt;" class="cls-2" d="M178.75,167.6l-39-51a22.65,22.65,0,0,1,2-29.72l13-13a36.21,36.21,0,0,0,8.87,31.72L199.11,152a12.82,12.82,0,0,1-20.36,15.59Z"/></g><path id="_Path_22" data-name="&lt;Path&gt;" class="cls-5" d="M163.57,105.58a36.21,36.21,0,0,1-8.87-31.72L167.5,61.05a12.82,12.82,0,1,1,18.13,18.13l-24,24Z"/><path id="_Path_23" data-name="&lt;Path&gt;" class="cls-8" d="M163.57,105.58a36.21,36.21,0,0,1-8.87-31.72L167.5,61.05a12.82,12.82,0,1,1,18.13,18.13l-24,24Z"/></g><path id="_Compound_Path_" data-name="&lt;Compound Path&gt;" class="cls-9" d="M94.24,28.37a18.05,18.05,0,0,1-3.05-10.1,18.27,18.27,0,1,1,36.54,0,17.87,17.87,0,0,1-.38,3.73,18.27,18.27,0,0,1-33.1,6.37ZM73.86,75.23l13,13a22.65,22.65,0,0,0,29.72,2l51-39A12.82,12.82,0,0,0,152,30.82L105.58,66.36l-2.45,1.88-24-24A12.82,12.82,0,1,0,61.05,62.42Zm46.6,118.15a18.27,18.27,0,0,0-17.89,14.54,17.89,17.89,0,0,0-.38,3.73,18.27,18.27,0,1,0,36.54,0,18.28,18.28,0,0,0-18.27-18.27Zm35.6-38.69-13-13a22.65,22.65,0,0,0-29.72-2l-51,39a12.82,12.82,0,1,0,15.59,20.36l46.43-35.54,2.45-1.88,24,24a12.82,12.82,0,0,0,18.13-18.13ZM22,102.58a17.88,17.88,0,0,0-3.73-.38,18.27,18.27,0,1,0,0,36.54,18.28,18.28,0,0,0,18.27-18.27A18.27,18.27,0,0,0,22,102.58Zm53.23,53.49,13-13a22.65,22.65,0,0,0,2-29.72l-39-51A12.82,12.82,0,1,0,30.82,77.91l35.54,46.43,1.88,2.45-24,24a12.82,12.82,0,1,0,18.13,18.13ZM211.65,91.19a18.28,18.28,0,0,0-18.27,18.27,18.27,18.27,0,0,0,14.54,17.89,17.88,17.88,0,0,0,3.73.38,18.27,18.27,0,1,0,0-36.54Zm-48.09,14.39-1.88-2.45,24-24A12.82,12.82,0,1,0,167.5,61.05L154.69,73.86l-13,13a22.65,22.65,0,0,0-2,29.72l39,51A12.82,12.82,0,0,0,199.11,152Z"/></g></g></g></g></svg>