<?xml version="1.0" standalone="no"?>
<!DOCTYPE svg PUBLIC "-//W3C//DTD SVG 20010904//EN"
 "http://www.w3.org/TR/2001/REC-SVG-20010904/DTD/svg10.dtd">
<svg version="1.0" xmlns="http://www.w3.org/2000/svg"
 width="116.000000pt" height="116.000000pt" viewBox="0 0 116.000000 116.000000"
 preserveAspectRatio="xMidYMid meet">
<metadata>
Created by potrace 1.11, written by Peter Selinger 2001-2013
</metadata>
<g transform="translate(0.000000,116.000000) scale(0.100000,-0.100000)"
fill="#000000" stroke="none">
<path d="M515 1146 c-33 -14 -55 -52 -55 -92 0 -39 51 -84 95 -84 45 0 95 45
95 85 0 41 -26 82 -61 94 -39 13 -37 13 -74 -3z"/>
<path d="M776 1005 c-15 -8 -73 -50 -130 -94 -57 -44 -108 -81 -114 -83 -6 -2
-40 25 -76 60 -54 52 -71 62 -100 62 -39 0 -66 -28 -66 -69 0 -29 169 -200
200 -202 11 -1 27 -1 35 -1 8 0 21 0 29 1 7 0 76 48 152 106 148 112 180 150
162 191 -15 32 -59 46 -92 29z"/>
<path d="M165 846 c-35 -35 -23 -64 80 -196 47 -61 88 -117 91 -123 2 -7 -25
-41 -61 -77 -52 -52 -65 -70 -65 -96 0 -38 27 -64 66 -64 25 0 46 16 117 89
48 49 88 97 88 107 5 63 -4 82 -104 214 -56 74 -110 142 -119 152 -25 25 -65
22 -93 -6z"/>
<path d="M788 793 c-142 -139 -142 -150 15 -353 99 -127 116 -145 144 -148 44
-4 77 29 69 68 -3 16 -48 84 -100 151 l-95 123 69 72 c59 62 68 77 64 101 -5
33 -37 63 -66 63 -12 0 -54 -33 -100 -77z"/>
<path d="M1023 690 c-12 -5 -29 -23 -39 -41 -13 -26 -14 -39 -5 -68 23 -79
130 -91 167 -20 17 34 11 86 -15 112 -21 21 -77 30 -108 17z"/>
<path d="M58 632 c-61 -31 -68 -120 -13 -156 39 -25 87 -20 118 12 72 75 -12
190 -105 144z"/>
<path d="M595 468 c-11 -6 -82 -58 -158 -116 -87 -66 -139 -112 -143 -127 -11
-45 36 -93 79 -79 12 4 77 49 145 101 l124 94 64 -63 c36 -35 74 -66 85 -70
28 -11 66 10 78 42 12 36 -6 64 -90 147 -82 80 -134 100 -184 71z"/>
<path d="M553 166 c-36 -30 -45 -63 -27 -104 18 -43 56 -66 98 -58 58 11 93
70 71 121 -16 39 -36 55 -77 61 -27 5 -41 1 -65 -20z"/>
</g>
</svg>
